name C:/MyDriveSym/Projects/mobilecap/Data\Session20210819_0002\mocap\ForceDataProcessed\walkingTS3_forces.mot
datacolumns 19
datarows 29
range 1.05700000 1.07100000
endheader 
time	R_ground_force_vx	R_ground_force_vy	R_ground_force_vz	R_ground_force_px	R_ground_force_py	R_ground_force_pz	R_ground_torque_x	R_ground_torque_y	R_ground_torque_z	L_ground_force_vx	L_ground_force_vy	L_ground_force_vz	L_ground_force_px	L_ground_force_py	L_ground_force_pz	L_ground_torque_x	L_ground_torque_y	L_ground_torque_z	
          1.05700000	          0.00000000	          0.00000000	          0.00000000	          1.19240400	          0.00000000	         -0.21068700	          0.00000000	          0.00000000	          0.00000000	         40.81827300	        570.91516700	         39.52159800	          0.90424300	          0.00600000	         -0.36039900	          0.00000000	          4.70708100	          0.00000000	
          1.05750000	          0.00000000	          0.00000000	          0.00000000	          1.19381800	          0.00000000	         -0.21076700	          0.00000000	          0.00000000	          0.00000000	         41.22138300	        571.83770000	         39.61909700	          0.90429800	          0.00600000	         -0.36038600	          0.00000000	          4.70611800	          0.00000000	
          1.05800000	          0.00000000	          0.00000000	          0.00000000	          1.19523200	          0.00000000	         -0.21084700	          0.00000000	          0.00000000	          0.00000000	         41.62583000	        572.76045700	         39.71649500	          0.90435200	          0.00600000	         -0.36037300	          0.00000000	          4.70506400	          0.00000000	
          1.05850000	          0.00000000	          0.00000000	          0.00000000	          1.19664600	          0.00000000	         -0.21092600	          0.00000000	          0.00000000	          0.00000000	         42.03160600	        573.68335400	         39.81378600	          0.90440600	          0.00600000	         -0.36036100	          0.00000000	          4.70391900	          0.00000000	
          1.05900000	          0.00000000	          0.00000000	          0.00000000	          1.19806100	          0.00000000	         -0.21100600	          0.00000000	          0.00000000	          0.00000000	         42.43870200	        574.60630300	         39.91096500	          0.90446100	          0.00600000	         -0.36034900	          0.00000000	          4.70268000	          0.00000000	
          1.05950000	          0.00000000	          0.00000000	          0.00000000	          1.19947500	          0.00000000	         -0.21108600	          0.00000000	          0.00000000	          0.00000000	         42.84711200	        575.52921800	         40.00802600	          0.90451500	          0.00600000	         -0.36033700	          0.00000000	          4.70134900	          0.00000000	
          1.06000000	          0.00000000	          0.00000000	          0.00000000	          1.20088900	          0.00000000	         -0.21116500	          0.00000000	          0.00000000	          0.00000000	         43.25682400	        576.45201100	         40.10496300	          0.90456900	          0.00600000	         -0.36032500	          0.00000000	          4.69992400	          0.00000000	
          1.06050000	          0.00000000	          0.00000000	          0.00000000	          1.20230300	          0.00000000	         -0.21124500	          0.00000000	          0.00000000	          0.00000000	         43.66783200	        577.37459700	         40.20177100	          0.90462300	          0.00600000	         -0.36031300	          0.00000000	          4.69840400	          0.00000000	
          1.06100000	          0.00000000	          0.00000000	          0.00000000	          1.20371700	          0.00000000	         -0.21132500	          0.00000000	          0.00000000	          0.00000000	         44.08012500	        578.29688600	         40.29844400	          0.90467700	          0.00600000	         -0.36030100	          0.00000000	          4.69679000	          0.00000000	
          1.06150000	          0.00000000	          0.00000000	          0.00000000	          1.20513100	          0.00000000	         -0.21140500	          0.00000000	          0.00000000	          0.00000000	         44.49369400	        579.21879000	         40.39497700	          0.90473100	          0.00600000	         -0.36029000	          0.00000000	          4.69508000	          0.00000000	
          1.06200000	          0.00000000	          0.00000000	          0.00000000	          1.20654500	          0.00000000	         -0.21148400	          0.00000000	          0.00000000	          0.00000000	         44.90853000	        580.14022100	         40.49136300	          0.90478500	          0.00600000	         -0.36027800	          0.00000000	          4.69327500	          0.00000000	
          1.06250000	          0.00000000	          0.00000000	          0.00000000	          1.20796000	          0.00000000	         -0.21156400	          0.00000000	          0.00000000	          0.00000000	         45.32462300	        581.06108900	         40.58759800	          0.90483900	          0.00600000	         -0.36026700	          0.00000000	          4.69137200	          0.00000000	
          1.06300000	          0.00000000	          0.00000000	          0.00000000	          1.20937400	          0.00000000	         -0.21164400	          0.00000000	          0.00000000	          0.00000000	         45.74196300	        581.98130600	         40.68367600	          0.90489300	          0.00600000	         -0.36025600	          0.00000000	          4.68937300	          0.00000000	
          1.06350000	          0.00000000	          0.00000000	          0.00000000	          1.21078800	          0.00000000	         -0.21172300	          0.00000000	          0.00000000	          0.00000000	         46.16054000	        582.90078000	         40.77959100	          0.90494700	          0.00600000	         -0.36024500	          0.00000000	          4.68727600	          0.00000000	
          1.06400000	          0.00000000	          0.00000000	          0.00000000	          1.21220200	          0.00000000	         -0.21180300	          0.00000000	          0.00000000	          0.00000000	         46.58034300	        583.81942300	         40.87533600	          0.90500100	          0.00600000	         -0.36023400	          0.00000000	          4.68508100	          0.00000000	
          1.06450000	          0.00000000	          0.00000000	          0.00000000	          1.21361600	          0.00000000	         -0.21188300	          0.00000000	          0.00000000	          0.00000000	         47.00136300	        584.73714400	         40.97090700	          0.90505400	          0.00600000	         -0.36022400	          0.00000000	          4.68278700	          0.00000000	
          1.06500000	          0.00000000	          0.00000000	          0.00000000	          1.21503000	          0.00000000	         -0.21196200	          0.00000000	          0.00000000	          0.00000000	         47.42358800	        585.65385000	         41.06629600	          0.90510800	          0.00600000	         -0.36021300	          0.00000000	          4.68039500	          0.00000000	
          1.06550000	          0.00000000	          0.00000000	          0.00000000	          1.21644500	          0.00000000	         -0.21204200	          0.00000000	          0.00000000	          0.00000000	         47.84700800	        586.56945300	         41.16149900	          0.90516200	          0.00600000	         -0.36020300	          0.00000000	          4.67790200	          0.00000000	
          1.06600000	          0.00000000	          0.00000000	          0.00000000	          1.21785900	          0.00000000	         -0.21212200	          0.00000000	          0.00000000	          0.00000000	         48.27161000	        587.48385900	         41.25651000	          0.90521600	          0.00600000	         -0.36019200	          0.00000000	          4.67531000	          0.00000000	
          1.06650000	          0.00000000	          0.00000000	          0.00000000	          1.21927300	          0.00000000	         -0.21220200	          0.00000000	          0.00000000	          0.00000000	         48.69738500	        588.39697700	         41.35132200	          0.90526900	          0.00600000	         -0.36018200	          0.00000000	          4.67261700	          0.00000000	
          1.06700000	          0.00000000	          0.00000000	          0.00000000	          1.22068700	          0.00000000	         -0.21228100	          0.00000000	          0.00000000	          0.00000000	         49.12432000	        589.30871400	         41.44592800	          0.90532300	          0.00600000	         -0.36017200	          0.00000000	          4.66982200	          0.00000000	
          1.06750000	          0.00000000	          0.00000000	          0.00000000	          1.22210100	          0.00000000	         -0.21236100	          0.00000000	          0.00000000	          0.00000000	         49.55240300	        590.21897900	         41.54032400	          0.90537700	          0.00600000	         -0.36016300	          0.00000000	          4.66692700	          0.00000000	
          1.06800000	          0.00000000	          0.00000000	          0.00000000	          1.22351500	          0.00000000	         -0.21244100	          0.00000000	          0.00000000	          0.00000000	         49.98162200	        591.12767900	         41.63450300	          0.90543100	          0.00600000	         -0.36015300	          0.00000000	          4.66392900	          0.00000000	
          1.06850000	          0.00000000	          0.00000000	          0.00000000	          1.22492900	          0.00000000	         -0.21252000	          0.00000000	          0.00000000	          0.00000000	         50.41196600	        592.03472000	         41.72845800	          0.90548400	          0.00600000	         -0.36014300	          0.00000000	          4.66082900	          0.00000000	
          1.06900000	          0.00000000	          0.00000000	          0.00000000	          1.22634400	          0.00000000	         -0.21260000	          0.00000000	          0.00000000	          0.00000000	         50.84342100	        592.94000900	         41.82218300	          0.90553800	          0.00600000	         -0.36013400	          0.00000000	          4.65762700	          0.00000000	
          1.06950000	          0.00000000	          0.00000000	          0.00000000	          1.22775800	          0.00000000	         -0.21268000	          0.00000000	          0.00000000	          0.00000000	         51.27597500	        593.84345400	         41.91567200	          0.90559200	          0.00600000	         -0.36012500	          0.00000000	          4.65432100	          0.00000000	
          1.07000000	          0.00000000	          0.00000000	          0.00000000	          1.22917200	          0.00000000	         -0.21275900	          0.00000000	          0.00000000	          0.00000000	         51.70961500	        594.74496000	         42.00891800	          0.90564500	          0.00600000	         -0.36011500	          0.00000000	          4.65091200	          0.00000000	
          1.07050000	          0.00000000	          0.00000000	          0.00000000	          1.23058600	          0.00000000	         -0.21283900	          0.00000000	          0.00000000	          0.00000000	         52.14432800	        595.64443300	         42.10191600	          0.90569900	          0.00600000	         -0.36010600	          0.00000000	          4.64739900	          0.00000000	
          1.07100000	          0.00000000	          0.00000000	          0.00000000	          1.23200000	          0.00000000	         -0.21291900	          0.00000000	          0.00000000	          0.00000000	         52.58009900	        596.54178000	         42.19465700	          0.90575300	          0.00600000	         -0.36009700	          0.00000000	          4.64378200	          0.00000000	
